<svg width="16" height="17" viewBox="0 0 16 17" fill="none" xmlns="http://www.w3.org/2000/svg">
<path fill-rule="evenodd" clip-rule="evenodd" d="M10.6667 1.2135C11.0349 1.2135 11.3333 1.51198 11.3333 1.88017V2.54792C11.6503 2.5501 11.9273 2.55664 12.1679 2.5763C12.5426 2.60691 12.8871 2.67262 13.2106 2.83748C13.7124 3.09315 14.1204 3.50109 14.376 4.00286C14.5409 4.32642 14.6066 4.67089 14.6372 5.04562C14.6667 5.40641 14.6667 5.84931 14.6667 6.38595V12.041C14.6667 12.5777 14.6667 13.0206 14.6372 13.3814C14.6066 13.7561 14.5409 14.1006 14.376 14.4241C14.1204 14.9259 13.7124 15.3339 13.2106 15.5895C12.8871 15.7544 12.5426 15.8201 12.1679 15.8507C11.8071 15.8802 11.3642 15.8802 10.8275 15.8802H5.17245C4.63581 15.8802 4.19291 15.8802 3.83211 15.8507C3.45738 15.8201 3.11291 15.7544 2.78935 15.5895C2.28759 15.3339 1.87964 14.9259 1.62398 14.4241C1.45912 14.1006 1.39341 13.7561 1.36279 13.3814C1.33331 13.0206 1.33332 12.5777 1.33333 12.041V6.38597C1.33332 5.84933 1.33331 5.40641 1.36279 5.04562C1.39341 4.67089 1.45912 4.32642 1.62398 4.00286C1.87964 3.50109 2.28759 3.09315 2.78935 2.83748C3.11291 2.67262 3.45738 2.60691 3.83211 2.5763C4.07265 2.55664 4.34969 2.5501 4.66666 2.54792V1.88017C4.66666 1.51198 4.96514 1.2135 5.33333 1.2135C5.70152 1.2135 6 1.51198 6 1.88017V2.54683H10V1.88017C10 1.51198 10.2985 1.2135 10.6667 1.2135ZM4.66666 3.88134V4.54683C4.66666 4.91502 4.96514 5.2135 5.33333 5.2135C5.70152 5.2135 6 4.91502 6 4.54683V3.88017H10V4.54683C10 4.91502 10.2985 5.2135 10.6667 5.2135C11.0349 5.2135 11.3333 4.91502 11.3333 4.54683V3.88134C11.6303 3.88343 11.8636 3.88921 12.0593 3.9052C12.3516 3.92908 12.5011 3.97237 12.6053 4.02549C12.8562 4.15332 13.0602 4.3573 13.188 4.60818C13.2411 4.71245 13.2844 4.86192 13.3083 5.15419C13.3328 5.45425 13.3333 5.84245 13.3333 6.4135V6.54683H2.66666V6.4135C2.66666 5.84245 2.66718 5.45425 2.6917 5.15419C2.71558 4.86192 2.75886 4.71245 2.81199 4.60818C2.93982 4.3573 3.14379 4.15332 3.39468 4.02549C3.49894 3.97237 3.64841 3.92908 3.94069 3.9052C4.13642 3.88921 4.36964 3.88343 4.66666 3.88134Z" fill="#736B7C"/>
</svg>
