<svg width="20" height="20" viewBox="0 0 20 20" fill="none" xmlns="http://www.w3.org/2000/svg">
<path d="M9.99998 6.25001C9.25829 6.25001 8.53327 6.46994 7.91659 6.88199C7.2999 7.29405 6.81926 7.87972 6.53543 8.56494C6.2516 9.25017 6.17734 10.0042 6.32203 10.7316C6.46672 11.459 6.82388 12.1272 7.34832 12.6517C7.87277 13.1761 8.54096 13.5333 9.26839 13.6779C9.99582 13.8226 10.7498 13.7484 11.435 13.4646C12.1203 13.1807 12.7059 12.7001 13.118 12.0834C13.53 11.4667 13.75 10.7417 13.75 10C13.7489 9.00576 13.3535 8.05253 12.6505 7.3495C11.9474 6.64646 10.9942 6.25104 9.99998 6.25001ZM9.99998 12.5C9.50552 12.5 9.02217 12.3534 8.61105 12.0787C8.19993 11.804 7.87949 11.4135 7.69028 10.9567C7.50106 10.4999 7.45155 9.99723 7.54801 9.51228C7.64447 9.02733 7.88258 8.58187 8.23221 8.23224C8.58184 7.88261 9.0273 7.64451 9.51225 7.54804C9.9972 7.45158 10.4999 7.50109 10.9567 7.69031C11.4135 7.87953 11.8039 8.19996 12.0786 8.61108C12.3534 9.0222 12.5 9.50555 12.5 10C12.5 10.663 12.2366 11.2989 11.7677 11.7678C11.2989 12.2366 10.663 12.5 9.99998 12.5ZM16.875 10.1688C16.8781 10.0563 16.8781 9.94376 16.875 9.83125L18.0406 8.375C18.1017 8.29855 18.144 8.2088 18.1641 8.113C18.1842 8.01719 18.1815 7.91801 18.1562 7.82344C17.9651 7.10516 17.6793 6.41551 17.3062 5.77266C17.2574 5.68853 17.1896 5.61697 17.1082 5.56367C17.0268 5.51037 16.9341 5.4768 16.8375 5.46563L14.9844 5.25938C14.9073 5.17813 14.8291 5.10001 14.75 5.02501L14.5312 3.16719C14.52 3.07048 14.4863 2.97774 14.4328 2.89636C14.3794 2.81497 14.3077 2.7472 14.2234 2.69844C13.5803 2.32606 12.8907 2.0405 12.1726 1.84922C12.078 1.82407 11.9788 1.82149 11.883 1.84171C11.7872 1.86193 11.6975 1.90438 11.6211 1.96563L10.1687 3.12501C10.0562 3.12501 9.94372 3.12501 9.83122 3.12501L8.37497 1.96172C8.29851 1.90061 8.20877 1.8583 8.11297 1.83822C8.01716 1.81813 7.91798 1.82083 7.82341 1.8461C7.10525 2.03753 6.41564 2.32335 5.77263 2.6961C5.6885 2.74495 5.61694 2.81276 5.56364 2.89414C5.51034 2.97551 5.47677 3.06821 5.4656 3.16485L5.25935 5.0211C5.1781 5.0987 5.09997 5.17683 5.02497 5.25547L3.16716 5.46876C3.07045 5.48001 2.97771 5.5137 2.89633 5.56714C2.81494 5.62058 2.74717 5.6923 2.69841 5.77657C2.32603 6.41966 2.04047 7.10926 1.84919 7.82735C1.82403 7.92198 1.82146 8.02119 1.84168 8.117C1.8619 8.2128 1.90435 8.30252 1.9656 8.37891L3.12497 9.83125C3.12497 9.94376 3.12497 10.0563 3.12497 10.1688L1.96169 11.625C1.90057 11.7015 1.85827 11.7912 1.83819 11.887C1.8181 11.9828 1.8208 12.082 1.84607 12.1766C2.03715 12.8948 2.323 13.5845 2.69607 14.2273C2.74492 14.3115 2.81273 14.383 2.89411 14.4363C2.97548 14.4896 3.06818 14.5232 3.16482 14.5344L5.01794 14.7406C5.09555 14.8219 5.17367 14.9 5.25232 14.975L5.46872 16.8328C5.47998 16.9295 5.51367 17.0223 5.56711 17.1037C5.62055 17.185 5.69227 17.2528 5.77654 17.3016C6.41963 17.674 7.10923 17.9595 7.82732 18.1508C7.92195 18.1759 8.02116 18.1785 8.11697 18.1583C8.21277 18.1381 8.30249 18.0956 8.37888 18.0344L9.83122 16.875C9.94372 16.8781 10.0562 16.8781 10.1687 16.875L11.625 18.0406C11.7014 18.1017 11.7912 18.1441 11.887 18.1641C11.9828 18.1842 12.082 18.1815 12.1765 18.1563C12.8948 17.9652 13.5845 17.6793 14.2273 17.3063C14.3114 17.2574 14.383 17.1896 14.4363 17.1082C14.4896 17.0268 14.5232 16.9341 14.5343 16.8375L14.7406 14.9844C14.8218 14.9073 14.9 14.8292 14.975 14.75L16.8328 14.5313C16.9295 14.52 17.0222 14.4863 17.1036 14.4329C17.185 14.3794 17.2528 14.3077 17.3015 14.2234C17.6739 13.5803 17.9595 12.8908 18.1508 12.1727C18.1759 12.078 18.1785 11.9788 18.1583 11.883C18.138 11.7872 18.0956 11.6975 18.0343 11.6211L16.875 10.1688ZM15.6172 9.66094C15.6304 9.88679 15.6304 10.1132 15.6172 10.3391C15.6079 10.4937 15.6563 10.6463 15.7531 10.7672L16.8617 12.1523C16.7345 12.5566 16.5716 12.9488 16.375 13.3242L14.6094 13.5242C14.4556 13.5413 14.3136 13.6148 14.2109 13.7305C14.0605 13.8996 13.9004 14.0598 13.7312 14.2102C13.6155 14.3129 13.542 14.4548 13.525 14.6086L13.3289 16.3727C12.9535 16.5694 12.5613 16.7323 12.157 16.8594L10.7711 15.7508C10.6602 15.6622 10.5224 15.614 10.3804 15.6141H10.3429C10.1171 15.6273 9.89067 15.6273 9.66482 15.6141C9.5102 15.6048 9.35763 15.6532 9.23669 15.75L7.84763 16.8594C7.44336 16.7322 7.05119 16.5693 6.67576 16.3727L6.47576 14.6094C6.45869 14.4556 6.3852 14.3137 6.26951 14.2109C6.10037 14.0606 5.9402 13.9004 5.78982 13.7313C5.68711 13.6156 5.54514 13.5421 5.39138 13.525L3.62732 13.3281C3.43059 12.9527 3.26771 12.5606 3.1406 12.1563L4.24919 10.7703C4.34599 10.6494 4.39444 10.4968 4.38513 10.3422C4.37185 10.1163 4.37185 9.88991 4.38513 9.66407C4.39444 9.50944 4.34599 9.35687 4.24919 9.23594L3.1406 7.84766C3.26781 7.44339 3.43069 7.05122 3.62732 6.67579L5.3906 6.47579C5.54436 6.45872 5.68633 6.38523 5.78904 6.26954C5.93942 6.1004 6.09959 5.94023 6.26872 5.78985C6.38488 5.68707 6.45867 5.54478 6.47576 5.39063L6.67185 3.62735C7.04724 3.43062 7.43942 3.26774 7.84372 3.14063L9.22966 4.24922C9.35059 4.34602 9.50316 4.39447 9.65779 4.38516C9.88363 4.37188 10.1101 4.37188 10.3359 4.38516C10.4905 4.39447 10.6431 4.34602 10.764 4.24922L12.1523 3.14063C12.5566 3.26784 12.9488 3.43072 13.3242 3.62735L13.5242 5.39063C13.5413 5.54439 13.6148 5.68636 13.7304 5.78907C13.8996 5.93945 14.0597 6.09962 14.2101 6.26875C14.3128 6.38445 14.4548 6.45794 14.6086 6.47501L16.3726 6.6711C16.5694 7.04649 16.7322 7.43867 16.8594 7.84297L15.7508 9.22891C15.653 9.35086 15.6045 9.505 15.6148 9.66094H15.6172Z" fill="white"/>
</svg>
